<?xml version="1.0" encoding="UTF-8" standalone="no"?>
<svg
   viewBox="0 0 24 24"
   version="1.1"
   id="svg773"
   sodipodi:docname="battery-unknown.svg"
   inkscape:version="1.2.1 (9c6d41e, 2022-07-14)"
   xmlns:inkscape="http://www.inkscape.org/namespaces/inkscape"
   xmlns:sodipodi="http://sodipodi.sourceforge.net/DTD/sodipodi-0.dtd"
   xmlns="http://www.w3.org/2000/svg"
   xmlns:svg="http://www.w3.org/2000/svg">
  <defs
     id="defs777">
    <filter
       style="color-interpolation-filters:sRGB;"
       inkscape:label="Invert"
       id="filter783"
       x="0"
       y="0"
       width="1"
       height="1">
      <feColorMatrix
         type="hueRotate"
         values="180"
         result="color1"
         id="feColorMatrix779" />
      <feColorMatrix
         values="-1 0 0 0 1 0 -1 0 0 1 0 0 -1 0 1 -0.21 -0.72 -0.07 2 0 "
         result="color2"
         id="feColorMatrix781" />
    </filter>
  </defs>
  <sodipodi:namedview
     id="namedview775"
     pagecolor="#505050"
     bordercolor="#eeeeee"
     borderopacity="1"
     inkscape:showpageshadow="0"
     inkscape:pageopacity="0"
     inkscape:pagecheckerboard="0"
     inkscape:deskcolor="#505050"
     showgrid="false"
     inkscape:zoom="9.8333333"
     inkscape:cx="12"
     inkscape:cy="12.050847"
     inkscape:window-width="1128"
     inkscape:window-height="695"
     inkscape:window-x="0"
     inkscape:window-y="0"
     inkscape:window-maximized="1"
     inkscape:current-layer="svg773" />
  <path
     d="M15.07,12.25L14.17,13.17C13.63,13.71 13.25,14.18 13.09,15H11.05C11.16,14.1 11.56,13.28 12.17,12.67L13.41,11.41C13.78,11.05 14,10.55 14,10C14,8.89 13.1,8 12,8A2,2 0 0,0 10,10H8A4,4 0 0,1 12,6A4,4 0 0,1 16,10C16,10.88 15.64,11.68 15.07,12.25M13,19H11V17H13M16.67,4H15V2H9V4H7.33A1.33,1.33 0 0,0 6,5.33V20.66C6,21.4 6.6,22 7.33,22H16.67C17.4,22 18,21.4 18,20.66V5.33C18,4.59 17.4,4 16.67,4Z"
     id="path771"
     style="filter:url(#filter783)" />
</svg>
